<svg width="54" height="54" viewBox="0 0 54 54" fill="none" xmlns="http://www.w3.org/2000/svg">
<path d="M44.2887 10.0771C44.0953 10.0587 39.9663 9.75248 39.9663 9.75248C39.9663 9.75248 37.0964 6.89043 36.7822 6.57544C36.4673 6.2587 35.8521 6.3532 35.6124 6.42582C35.5783 6.43545 34.9868 6.62007 34.0077 6.92193C33.0487 4.15088 31.3591 1.60471 28.3851 1.60471C28.3029 1.60471 28.218 1.60821 28.1322 1.61346C27.287 0.490861 26.2388 0 25.3332 0C18.4043 0 15.0933 8.70688 14.0556 13.1316C11.3624 13.9681 9.448 14.5648 9.20651 14.6436C7.70068 15.1178 7.6543 15.1651 7.45918 16.5878C7.30869 17.6649 3.37567 48.2304 3.37567 48.2304L34.0191 54L50.6244 50.389C50.6244 50.389 44.7961 10.7867 44.7594 10.5146C44.7226 10.2433 44.4847 10.0928 44.2887 10.0771ZM27.9047 8.52051C27.9047 8.62464 27.903 8.72263 27.903 8.8215C26.216 9.34737 24.3856 9.9161 22.5473 10.4892C23.5789 6.49057 25.5108 4.55687 27.2021 3.82802C27.6265 4.90074 27.9047 6.44245 27.9047 8.52051ZM25.1416 1.86895C25.4443 1.86895 25.7436 1.97045 26.0323 2.17081C23.8107 3.21991 21.4317 5.86671 20.4254 11.1489C18.9564 11.6057 17.5214 12.0537 16.1923 12.4667C17.37 8.43564 20.1647 1.86895 25.1416 1.86895ZM26.3359 25.4163C26.3359 25.4163 24.5422 24.4547 22.3451 24.4547C19.12 24.4547 18.9572 26.4881 18.9572 26.9991C18.9572 29.7947 26.2082 30.8665 26.2082 37.414C26.2082 42.5658 22.9585 45.882 18.5731 45.882C13.3128 45.882 10.6213 42.5912 10.6213 42.5912L12.0292 37.9144C12.0292 37.9144 14.7941 40.3023 17.1303 40.3023C18.6527 40.3023 19.2731 39.0948 19.2731 38.2137C19.2731 34.5668 13.3241 34.404 13.3241 28.4113C13.3241 23.3706 16.9255 18.4882 24.1983 18.4882C26.9974 18.4882 28.3834 19.2958 28.3834 19.2958L26.3359 25.4163ZM29.7212 8.25627C29.7212 8.07165 29.7229 7.89141 29.7229 7.69279C29.7229 5.97258 29.4841 4.58575 29.1026 3.48678C30.6355 3.6784 31.6566 5.43185 32.3137 7.44867C31.5446 7.69016 30.6697 7.9614 29.7212 8.25627Z" fill="#9A82DB"/>
<path d="M44.2887 10.0771C44.0953 10.0587 39.9663 9.75248 39.9663 9.75248C39.9663 9.75248 37.0964 6.89043 36.7822 6.57544C36.4673 6.2587 35.8521 6.3532 35.6124 6.42582C35.5783 6.43545 34.9868 6.62007 34.0077 6.92193C33.0487 4.15088 31.3591 1.60471 28.3851 1.60471C28.3029 1.60471 28.218 1.60821 28.1322 1.61346C27.287 0.490861 26.2388 0 25.3332 0C18.4043 0 16.6946 8.70688 15.6568 13.1316C12.9637 13.9681 10.897 18.5731 10.6528 18.6501C9.14876 19.1243 9.10239 19.1716 8.90639 20.5952C8.75502 21.6714 3.37567 48.2304 3.37567 48.2304L34.0191 54L50.6244 50.389C50.6244 50.389 44.7961 10.7867 44.7594 10.5146C44.7226 10.2433 44.4847 10.0928 44.2887 10.0771ZM27.9047 8.52051C27.9047 8.62464 27.903 8.72263 27.903 8.8215C26.216 9.34737 24.3856 9.9161 22.5473 10.4892C23.5789 6.49057 25.5108 4.55687 27.2021 3.82802C27.6265 4.90074 27.9047 6.44245 27.9047 8.52051ZM25.1416 1.86895C25.4443 1.86895 25.7436 1.97045 26.0323 2.17081C23.8107 3.21991 21.4317 5.86671 20.4254 11.1489C18.9564 11.6057 17.5214 12.0537 16.1923 12.4667C17.37 8.43564 20.1647 1.86895 25.1416 1.86895ZM26.3359 25.4163C26.3359 25.4163 24.5422 24.4547 22.3451 24.4547C19.12 24.4547 18.9572 26.4881 18.9572 26.9991C18.9572 29.7947 26.2082 30.8665 26.2082 37.414C26.2082 42.5658 22.9585 45.882 18.5731 45.882C13.3128 45.882 10.6213 42.5912 10.6213 42.5912L12.0292 37.9144C12.0292 37.9144 14.7941 40.3023 17.1303 40.3023C18.6527 40.3023 19.2731 39.0948 19.2731 38.2137C19.2731 34.5668 13.3241 34.404 13.3241 28.4113C13.3241 23.3706 16.9255 18.4882 24.1983 18.4882C26.9974 18.4882 28.3834 19.2958 28.3834 19.2958L26.3359 25.4163ZM29.7212 8.25627C29.7212 8.07165 29.7229 7.89141 29.7229 7.69279C29.7229 5.97258 29.4841 4.58575 29.1026 3.48678C30.6355 3.6784 31.6566 5.43185 32.3137 7.44867C31.5446 7.69016 30.6697 7.9614 29.7212 8.25627Z" fill="#9A82DB"/>
<path d="M34.0191 53.9991L50.6244 50.389C50.6244 50.389 44.7961 10.7867 44.7594 10.5146C44.7227 10.2425 44.4855 10.0929 44.2887 10.0771C44.0953 10.0587 39.9663 9.75249 39.9663 9.75249C39.9663 9.75249 37.0964 6.89045 36.7822 6.57545C36.6143 6.40571 36.3631 6.35758 36.126 6.35583C35.496 7.42331 35.6264 9.45062 35.6264 9.45062L33.6735 53.9335L34.0191 53.9991Z" fill="#9A82DB"/>
<path d="M28.3851 1.60556C28.3029 1.60556 28.218 1.60906 28.1322 1.61431C27.287 0.491716 26.2388 0.000854492 25.3332 0.000854492C18.4322 0.000854492 15.1187 8.63949 14.0679 13.0791L16.2089 12.415C17.3937 8.38225 20.1857 1.86893 25.1416 1.86893C25.4443 1.86893 25.7435 1.97043 26.0323 2.17079C23.8169 3.21639 21.4439 5.85357 20.4342 11.1069L22.5604 10.4507C23.5946 6.47743 25.5187 4.55423 27.2039 3.828C27.6274 4.90159 27.9065 6.44243 27.9065 8.52049C27.9065 8.61499 27.9065 8.70511 27.9047 8.79524L29.7229 8.23263C29.7229 8.05763 29.7247 7.88264 29.7247 7.69277C29.7247 5.97256 29.4858 4.58573 29.1043 3.48676C30.632 3.6775 31.6523 5.42308 32.3085 7.43115L34.0042 6.90529C33.0426 4.14212 31.3539 1.60556 28.3851 1.60556Z" fill="#9A82DB"/>
<path d="M40.6592 9.80499C40.2445 9.77262 39.9654 9.75249 39.9654 9.75249C39.9654 9.75249 37.0954 6.89045 36.7813 6.57545C36.6133 6.40571 36.3622 6.35758 36.1251 6.35583C35.4951 7.42331 35.6255 9.45062 35.6255 9.45062L33.6725 53.9335L34.019 53.9991L42.8545 52.0777L40.6592 9.80499Z" fill="#9A82DB"/>
</svg>
